<?xml version="1.0" standalone="no"?><!DOCTYPE svg PUBLIC "-//W3C//DTD SVG 1.1//EN" "http://www.w3.org/Graphics/SVG/1.1/DTD/svg11.dtd"><svg t="1571708927571" class="icon" viewBox="0 0 1024 1024" version="1.1" xmlns="http://www.w3.org/2000/svg" p-id="1389" xmlns:xlink="http://www.w3.org/1999/xlink" width="55" height="55"><defs><style type="text/css"></style></defs><path d="M822.30312527 758.5015625H201.66875c-22.16250027 0-40.17656277-18.70312527-40.17656277-41.69531277V307.19375027c0-22.9921875 18.0140625-41.69531277 40.17656277-41.69531277h620.63437527c22.16250027 0 40.2046875 18.70312527 40.2046875 41.69531277v409.61249946c0.01406277 22.9921875-18.02812527 41.69531277-40.2046875 41.69531277zM201.66875 293.62343723c-6.65156223 0-12.05156223 6.08906277-12.05156223 13.57031304v409.61249946c0 7.49531223 5.41406277 13.57031223 12.05156223 13.57031304h620.63437527c6.67968777 0 12.07968777-6.075 12.07968696-13.57031304V307.19375027c0-7.48125027-5.42812473-13.57031223-12.07968696-13.57031304H201.66875z" fill="#d81e06" p-id="1390"></path><path d="M421.8453125 505.43281277c3.05156277 3.19218723 3.3328125 7.86093777 0.6328125 10.4625l-234.70312527 224.99999946c-2.7 2.5734375-7.36874973 2.09531223-10.4203125-1.08281223l-8.42343723-8.78906277c-3.06562473-3.20625-3.3328125-7.846875-0.6328125-10.43437446l234.70312527-225.01406304c2.7-2.5734375 7.35468777-2.09531223 10.40624973 1.06875027l8.4375 8.78906277zM844.0578125 291.75312527c2.85468723 3.375 2.05312473 8.67656223-1.7296875 11.86874946L512.81562527 580.14687527c-3.796875 3.1640625-9.1546875 2.9953125-11.99531277-0.3796875l-7.83281223-9.29531277c-2.8265625-3.375-2.05312473-8.67656223 1.74374946-11.88281223l329.5265625-276.52500054c3.796875-3.1640625 9.16875027-2.9953125 12.00937554 0.35156277l7.79062473 9.33750027z" fill="#d81e06" p-id="1391"></path><path d="M512.22500027 580.06250027c-2.88281277 3.34687527-8.21249973 3.43125027-11.896875 0.28124973L181.41875 303.10156277c-3.65624973-3.19218723-4.303125-8.46562473-1.40625027-11.8125l7.98750027-9.16875027c2.88281277-3.31874973 8.19843777-3.40312473 11.86875027-0.253125L518.77812473 559.10937473c3.68437527 3.20625 4.31718777 8.4796875 1.40625027 11.8125l-7.95937473 9.14062554zM838.953125 743.6515625c-3.0796875 3.20625-7.77656277 3.60000027-10.49062473 0.98437527l-236.89687527-228.79687527c-2.71406277-2.62968777-2.47499973-7.32656223 0.60468777-10.5046875l8.46562473-8.7328125c3.05156277-3.17812527 7.74843723-3.5859375 10.4625-0.9703125l236.925 228.79687527c2.71406277 2.64374973 2.446875 7.32656223-0.6328125 10.51874946l-8.4375 8.70468777z" fill="#d81e06" p-id="1392"></path></svg>