<?xml version="1.0" standalone="no"?><!DOCTYPE svg PUBLIC "-//W3C//DTD SVG 1.1//EN" "http://www.w3.org/Graphics/SVG/1.1/DTD/svg11.dtd"><svg t="1571709525470" class="icon" viewBox="0 0 1024 1024" version="1.1" xmlns="http://www.w3.org/2000/svg" p-id="2030" xmlns:xlink="http://www.w3.org/1999/xlink" width="55" height="55"><defs><style type="text/css"></style></defs><path d="M32 32h960v960H32z" fill="#D8D8D8" fill-opacity="0" p-id="2031"></path><path d="M136.34782625 520.97391313c0 160.73739094 106.47652219 297.05739094 254.19130406 345.18260906 18.57391312 3.33913031 25.35652219-7.90956563 25.35652219-17.53043532 0-8.64-0.31304344-31.51304344-0.50086969-61.87826062-103.38782625 21.9756525-125.19652219-48.77217375-125.19652219-48.77217375-16.9043475-42.03130406-41.28-53.21739094-41.28-53.21739188-33.74608688-22.53913031 2.56695656-22.10086969 2.56695657-22.10086968 37.29391313 2.56695656 56.93217375 37.50260906 56.93217375 37.50260906 33.14086969 55.5756525 86.9843475 39.52695656 108.16695656 30.19826062 3.38086969-23.47826063 12.98086969-39.52695656 23.58260906-48.62608687-82.51826063-9.16173937-169.29391312-40.38260906-169.29391312-179.77043438 0-39.69391312 14.48347781-72.20869594 38.27478281-97.60695656-3.84-9.18260906-16.59130406-46.20521719 3.65217375-96.271305 0 0 31.17913031-9.78782625 102.19826063 37.29391313 29.63478281-8.07652219 61.44-12.1043475 93.03652218-12.25043438 31.5756525 0.14608688 63.36 4.17391313 93.05739094 12.25043438 70.95652219-47.08173938 102.09391313-37.29391313 102.09391313-37.29391313 20.28521719 50.08695656 7.53391313 87.06782625 3.71478281 96.271305 23.83304344 25.41913031 38.19130406 57.91304344 38.19130406 97.60695656 0 139.74260906-86.90086969 170.5043475-169.66956469 179.49913032 13.31478281 11.22782625 25.21043438 33.43304344 25.21043438 67.36695656 0 48.62608687-0.45913031 87.86086969-0.45913032 99.77739094 0 9.74608687 6.69913031 21.07826063 25.5443475 17.50956562 147.58956562-48.20869594 253.98260906-184.44521719 253.98260907-345.12C879.70086969 320.08347781 713.26608688 157.21739094 507.99304344 157.21739094 302.78260906 157.21739094 136.34782625 320.08347781 136.34782625 520.97391313z" fill="#161614" p-id="2032"></path></svg>