<?xml version="1.0" standalone="no"?><!DOCTYPE svg PUBLIC "-//W3C//DTD SVG 1.1//EN" "http://www.w3.org/Graphics/SVG/1.1/DTD/svg11.dtd"><svg t="1571709518132" class="icon" viewBox="0 0 1024 1024" version="1.1" xmlns="http://www.w3.org/2000/svg" p-id="1774" xmlns:xlink="http://www.w3.org/1999/xlink" width="55" height="55"><defs><style type="text/css"></style></defs><path d="M615.4088134 169.08923353H407.90454121c-68.80187956 0-103.13415538 0-140.21301281 11.67297327-40.51208515 14.83154297-72.37243666 46.69189448-87.06665026 87.06665097-11.81030263 37.07885742-11.81030263 71.41113252-11.81030262 140.21301208v207.50427293c0 68.80187956 0 103.27148403 11.67297326 140.21301278 14.69421359 40.37475578 46.55456511 72.23510729 86.9293216 86.92932089 37.07885742 11.67297398 71.41113252 11.67297398 140.21301209 11.67297398h207.50427291c68.80187956 0 103.13415538 0 140.2130128-11.67297398 40.37475578-14.69421359 72.23510729-46.55456511 87.06665025-86.92932089 11.67297398-37.07885742 11.67297398-71.41113252 11.67297328-140.21301279V408.04186984c0-68.80187956 0-103.13415538-11.67297328-140.21301206-14.69421359-40.37475578-46.55456511-72.23510729-87.06665025-87.06665098-36.80419942-11.67297398-71.13647451-11.67297398-139.93835478-11.67297327z m0 0" fill="#ea6f5a" p-id="1775"></path><path d="M311.77416992 472.0372316h51.22375499v268.20373487h-51.22375499V472.0372316z m28.97644054-81.43615767c12.90893542 23.895264 21.14868167 47.65319789 24.99389605 71.54846188h55.89294487c-7.69042949-30.48706072-17.30346656-54.24499533-28.83911189-71.54846188h-52.04772902z m0 0" fill="#FFFFFF" p-id="1776"></path><path d="M451.02587858 342.94787602h61.66076681v-33.78295905h-111.78588829c1.23596215-2.60925295 3.15856898-7.27844211 5.76782196-13.87023956 1.23596215-5.35583528 2.60925295-9.20104967 3.8452151-11.94763127H352.69824245c-8.92639165 35.70556662-29.52575657 62.21008284-61.66076681 79.51354939V396.64355461c42.43469271-10.57434047 72.5097653-28.42712378 90.49987799-53.5583492h19.2260741c6.45446806 17.16613791 10.29968246 33.78295906 11.53564461 49.71313409h53.9703366c-3.70788575-18.67675807-8.92639165-35.29357924-15.24353036-49.85046348zM425.89465316 450.20190453h232.22351096v218.49060007c1.23596215 19.91271952-7.69042949 29.11376918-26.91650361 27.74047908h-31.86035224v39.6881104h46.27990783c44.90661629 1.3732908 66.74194336-19.22607412 65.50598119-61.66076682V410.51379416H425.89465316V450.20190453z m1e-8 0" fill="#FFFFFF" p-id="1777"></path><path d="M607.0317385 486.0447998H418.20422366v200.63781746h131.01196313c41.06140118 1.3732908 60.42480466-18.53942872 57.8155517-59.60082989V486.0447998z m-136.77978508 35.70556662h84.73205532v45.73059035h-84.73205532v-45.73059035z m59.73815853 129.08935558h-59.73815853V601.26391582h84.73205532v23.895264c1.23596215 18.40209935-7.0037841 27.05383298-24.99389679 25.68054218z m78.96423411-343.59741258c0-1.3732908 0.68664539-3.29589836 1.92260683-5.90515132l5.76782266-17.85278332h-57.81555171c-9.06372103 37.07885742-28.83911116 64.95666517-59.73815926 83.4960939v31.72302285c39.82543974-10.57434047 70.03784172-29.11376918 90.49987799-55.61828612h26.91650361c6.45446806 17.16613791 10.29968246 33.78295906 11.53564462 49.71313408h52.04772975c-1.23596215-13.18359342-6.45446806-29.80041532-15.38085972-49.71313408h67.42858876v-35.70556663h-123.18420353z m0 0" fill="#FFFFFF" p-id="1778"></path></svg>