<?xml version="1.0" standalone="no"?><!DOCTYPE svg PUBLIC "-//W3C//DTD SVG 1.1//EN" "http://www.w3.org/Graphics/SVG/1.1/DTD/svg11.dtd"><svg t="1571709508292" class="icon" viewBox="0 0 1024 1024" version="1.1" xmlns="http://www.w3.org/2000/svg" p-id="1517" xmlns:xlink="http://www.w3.org/1999/xlink" width="55" height="55"><defs><style type="text/css"></style></defs><path d="M567.79367519 539.13965084m-21.89090729 0a21.89090729 21.89090729 0 1 0 43.78181457 0 21.89090729 21.89090729 0 1 0-43.78181457 0Z" fill="#52BD33" p-id="1518"></path><path d="M513.47473053 418.41062313m-26.79872065 0a26.79871999 26.79871999 0 1 0 53.59744064 0 26.79871999 26.79871999 0 1 0-53.59744064 0Z" fill="#52BD33" p-id="1519"></path><path d="M397.39187127 418.41062313m-26.79872068 0a26.79871999 26.79871999 0 1 0 53.59744065 0 26.79871999 26.79871999 0 1 0-53.59744065 0Z" fill="#52BD33" p-id="1520"></path><path d="M677.40678417 539.13965084m-21.89090728 0a21.89090729 21.89090729 0 1 0 43.78181458 0 21.89090729 21.89090729 0 1 0-43.78181458 0Z" fill="#52BD33" p-id="1521"></path><path d="M753.76727938 164.38571167H270.20895043A105.83115923 105.83115923 0 0 0 164.38571982 270.24858526v483.52661525a105.83115923 105.83115923 0 0 0 105.82323062 105.83908782h483.55832894a105.83908782 105.83908782 0 0 0 105.8470171-105.83908782V270.24858526A105.83908782 105.83908782 0 0 0 753.76727938 164.38571167zM451.30645632 621.2801074c-22.14462295 0-39.95229326-4.51138237-62.14448777-8.91176375l-62.02555888 31.10395824 17.74424091-53.37543936c-44.40024687-31.04052951-71.00075136-71.04832359-71.00075136-119.77759382 0-84.41596887 79.89665791-150.91326713 177.4265571-150.91326714 87.21477038 0 163.6624808 53.1217237 179.02020906 124.59819201a153.59313906 153.59313906 0 0 0-17.08616631-1.05450561c-84.30496857 0.02378578-150.84983839 62.92942119-150.84983839 140.47920877a132.21759168 132.21759168 0 0 0 5.49453062 37.14556383c-5.49453063 0.43607397-11.01284702 0.70564682-16.57873498 0.70564683z m261.71566847 62.15241635l13.33593091 44.29717448-48.66584149-26.64807604c-17.74424156 4.44795362-35.56776906 8.90383516-53.24065328 8.90383515-84.41596887 0-150.90533855-57.69653482-150.90533787-128.76071559 0-70.93732261 66.48936967-128.75278701 150.90533787-128.752787 79.72222887 0 150.70712303 57.82339298 150.70712303 128.752787 0.00792859 40.05536564-26.52121854 75.48834794-62.13655917 102.207782z" fill="#52BD33" p-id="1522"></path></svg>