<?xml version="1.0" standalone="no"?><!DOCTYPE svg PUBLIC "-//W3C//DTD SVG 1.1//EN" "http://www.w3.org/Graphics/SVG/1.1/DTD/svg11.dtd"><svg t="1571709513632" class="icon" viewBox="0 0 1024 1024" version="1.1" xmlns="http://www.w3.org/2000/svg" p-id="1647" xmlns:xlink="http://www.w3.org/1999/xlink" width="55" height="55"><defs><style type="text/css"></style></defs><path d="M274.42065449 169.63854957h474.47204563c57.95288108 0 105.05676293 46.69189448 105.46875031 104.64477555v475.98266581c-0.41198738 57.95288108-47.51586924 104.78210421-105.46875031 104.64477554H274.42065449c-57.95288108 0-105.05676293-46.69189448-105.46875032-104.64477555V274.28332512c0.41198738-57.95288108 47.51586924-104.78210421 105.46875032-104.64477555z m0 0" fill="#0084ff" p-id="1648"></path><path d="M331.54956078 511.72534199h74.2950435c1.64794955-24.85656741 0-78.27758797 0-116.0430908h-36.25488264c-10.16235381 22.24731445-19.6380615 40.37475578-38.31481959 47.6531979-8.65173364 3.84521512-18.53942872 4.66918916-27.74047838 2.4719243 8.23974625 0.96130343 36.39221202-100.79956044 50.1251222-119.47631851 9.47570768-11.67297398 23.48327661-18.67675807 38.45214823-19.22607412-2.74658232 19.91271952-8.23974625 39.41345236-16.4794918 57.81555171h137.46643048v30.89904737h-74.56970222c0 37.35351543 1.3732908 90.774536 0 116.04309078h86.24267621l-0.4119874 31.17370612-87.34130899-0.41198738c-0.82397477 6.72912608-1.51062017 23.07128922-2.33459421 29.38842791 0 0 45.73059106 47.79052727 70.03784171 78.82690473v53.69567859c-25.9552002-34.46960447-79.92553678-99.01428225-79.92553751-99.01428226-32.54699692 82.67211911-78.00292996 112.47253442-78.00292923 112.47253369h-50.12512219s99.01428225-108.48998994 106.56738238-174.68261654h-103.54614205l31.8603515-31.58569349z m209.42687976-148.86474645h172.34802232v311.59973173l-70.17517108 0.274658-52.18505841 42.84668009-21.14868165-43.12133809h-28.83911117V362.86059553z m140.48767082 29.93774395h-108.48998994v244.99511774h6.17980932l18.53942871 38.45214821 47.79052727-38.45214821h35.98022464V392.7983395z m0 0" fill="#FFFFFF" p-id="1649"></path></svg>